# Blender v2.93.0 OBJ File: 'EditorHandles.blend'
# www.blender.org
mtllib EditorHandleMove.mtl
o MoveHandle_Cylinder
v -0.000000 0.006244 -0.154668
v 0.030174 0.006244 -0.151696
v 0.059189 0.006244 -0.142894
v 0.085929 0.006244 -0.128601
v 0.109367 0.006244 -0.109367
v 0.128601 0.006244 -0.085929
v 0.142894 0.006244 -0.059189
v 0.151696 0.006244 -0.030174
v 0.154668 0.006244 0.000000
v 0.151696 0.006244 0.030174
v 0.142894 0.006244 0.059189
v 0.128601 0.006244 0.085929
v 0.109367 0.006244 0.109367
v 0.085929 0.006244 0.128601
v 0.059189 0.006244 0.142894
v 0.030174 0.006244 0.151696
v -0.000000 0.006244 0.154668
v -0.030174 0.006244 0.151696
v -0.059189 0.006244 0.142894
v -0.085929 0.006244 0.128601
v -0.109367 0.006244 0.109367
v -0.128601 0.006244 0.085929
v -0.142894 0.006244 0.059189
v -0.151696 0.006244 0.030174
v -0.154668 0.006244 -0.000000
v -0.151696 0.006244 -0.030174
v -0.142894 0.006244 -0.059189
v -0.128602 0.006244 -0.085929
v -0.109367 0.006244 -0.109367
v -0.085929 0.006244 -0.128601
v -0.059189 0.006244 -0.142894
v -0.030174 0.006244 -0.151696
v 0.000000 5.802548 -0.317899
v 0.062019 5.802548 -0.311791
v 0.121655 5.802548 -0.293700
v 0.176615 5.802548 -0.264323
v 0.224789 5.802548 -0.224789
v 0.264323 5.802548 -0.176615
v 0.293700 5.802548 -0.121655
v 0.311791 5.802548 -0.062019
v 0.317899 5.802548 0.000000
v 0.311791 5.802548 0.062019
v 0.293700 5.802548 0.121655
v 0.264323 5.802548 0.176615
v 0.224789 5.802548 0.224789
v 0.176615 5.802548 0.264323
v 0.121655 5.802548 0.293700
v 0.062019 5.802548 0.311791
v -0.000000 5.802548 0.317899
v -0.062019 5.802548 0.311791
v -0.121655 5.802548 0.293700
v -0.176615 5.802548 0.264323
v -0.224789 5.802548 0.224789
v -0.264323 5.802548 0.176615
v -0.293700 5.802548 0.121655
v -0.311791 5.802548 0.062019
v -0.317899 5.802548 -0.000000
v -0.311791 5.802548 -0.062019
v -0.293700 5.802548 -0.121655
v -0.264323 5.802548 -0.176615
v -0.224789 5.802548 -0.224789
v -0.176615 5.802548 -0.264323
v -0.121655 5.802548 -0.293700
v -0.062019 5.802548 -0.311791
v 0.000000 6.910293 0.000000
v -0.000000 5.802548 -0.154668
v -0.000000 5.802548 0.154668
v 0.030174 5.802548 -0.151696
v -0.030174 5.802548 0.151696
v 0.059189 5.802548 -0.142894
v -0.059189 5.802548 0.142894
v -0.085929 5.802548 0.128601
v 0.085929 5.802548 -0.128601
v 0.109367 5.802548 -0.109367
v -0.109367 5.802548 0.109367
v -0.128601 5.802548 0.085929
v 0.128601 5.802548 -0.085929
v -0.142894 5.802548 0.059189
v 0.142894 5.802548 -0.059189
v -0.151696 5.802548 0.030174
v 0.151696 5.802548 -0.030174
v -0.154668 5.802548 -0.000000
v 0.154668 5.802548 0.000000
v -0.151696 5.802548 -0.030174
v 0.151696 5.802548 0.030174
v -0.142894 5.802548 -0.059189
v 0.142894 5.802548 0.059189
v -0.128602 5.802548 -0.085929
v 0.128601 5.802548 0.085929
v -0.109367 5.802548 -0.109367
v 0.109367 5.802548 0.109367
v -0.085929 5.802548 -0.128601
v 0.085929 5.802548 0.128601
v -0.059189 5.802548 -0.142894
v 0.059189 5.802548 0.142894
v 0.030174 5.802548 0.151696
v -0.030174 5.802548 -0.151696
vt 1.000000 0.503343
vt 0.968750 0.503343
vt 0.968750 1.000000
vt 1.000000 1.000000
vt 0.937500 0.503343
vt 0.937500 1.000000
vt 0.906250 0.503343
vt 0.906250 1.000000
vt 0.875000 0.503343
vt 0.875000 1.000000
vt 0.843750 0.503343
vt 0.843750 1.000000
vt 0.812500 0.503343
vt 0.812500 1.000000
vt 0.781250 0.503343
vt 0.781250 1.000000
vt 0.750000 0.503343
vt 0.750000 1.000000
vt 0.718750 0.503343
vt 0.718750 1.000000
vt 0.687500 0.503343
vt 0.687500 1.000000
vt 0.656250 0.503343
vt 0.656250 1.000000
vt 0.625000 0.503343
vt 0.625000 1.000000
vt 0.593750 0.503343
vt 0.593750 1.000000
vt 0.562500 0.503343
vt 0.562500 1.000000
vt 0.531250 0.503343
vt 0.531250 1.000000
vt 0.500000 0.503343
vt 0.500000 1.000000
vt 0.468750 0.503343
vt 0.468750 1.000000
vt 0.437500 0.503343
vt 0.437500 1.000000
vt 0.406250 0.503343
vt 0.406250 1.000000
vt 0.375000 0.503343
vt 0.375000 1.000000
vt 0.343750 0.503343
vt 0.343750 1.000000
vt 0.312500 0.503343
vt 0.312500 1.000000
vt 0.281250 0.503343
vt 0.281250 1.000000
vt 0.250000 0.503343
vt 0.250000 1.000000
vt 0.218750 0.503343
vt 0.218750 1.000000
vt 0.187500 0.503343
vt 0.187500 1.000000
vt 0.156250 0.503343
vt 0.156250 1.000000
vt 0.125000 0.503343
vt 0.125000 1.000000
vt 0.093750 0.503343
vt 0.093750 1.000000
vt 0.062500 0.503343
vt 0.062500 1.000000
vt 0.050447 0.383337
vt 0.080294 0.419706
vt 0.116663 0.449553
vt 0.158156 0.471731
vt 0.203178 0.485388
vt 0.250000 0.490000
vt 0.296822 0.485388
vt 0.341844 0.471731
vt 0.383337 0.449553
vt 0.419706 0.419706
vt 0.449553 0.383337
vt 0.471731 0.341844
vt 0.485388 0.296822
vt 0.490000 0.250000
vt 0.485388 0.203178
vt 0.471731 0.158156
vt 0.449553 0.116663
vt 0.419706 0.080294
vt 0.383337 0.050447
vt 0.341844 0.028269
vt 0.296822 0.014612
vt 0.250000 0.010000
vt 0.203178 0.014612
vt 0.158156 0.028269
vt 0.116663 0.050447
vt 0.080294 0.080294
vt 0.050447 0.116663
vt 0.028269 0.158156
vt 0.014612 0.203178
vt 0.010000 0.250000
vt 0.014612 0.296822
vt 0.028269 0.341844
vt 0.031250 0.503343
vt 0.031250 1.000000
vt 0.000000 0.503343
vt 0.000000 1.000000
vt 0.250000 0.490000
vt 0.250000 0.250000
vt 0.296822 0.485388
vt 0.341844 0.471731
vt 0.383337 0.449553
vt 0.419706 0.419706
vt 0.449553 0.383337
vt 0.471731 0.341844
vt 0.485388 0.296822
vt 0.490000 0.250000
vt 0.485388 0.203178
vt 0.471731 0.158156
vt 0.449553 0.116663
vt 0.419706 0.080294
vt 0.383337 0.050447
vt 0.341844 0.028269
vt 0.296822 0.014612
vt 0.250000 0.010000
vt 0.203178 0.014612
vt 0.158156 0.028269
vt 0.116663 0.050447
vt 0.080294 0.080294
vt 0.050447 0.116663
vt 0.028269 0.158156
vt 0.014612 0.203178
vt 0.010000 0.250000
vt 0.014612 0.296822
vt 0.028269 0.341844
vt 0.050447 0.383337
vt 0.080294 0.419706
vt 0.116663 0.449553
vt 0.158156 0.471731
vt 0.514612 0.203178
vt 0.510000 0.250000
vt 0.514612 0.296822
vt 0.528269 0.341844
vt 0.550447 0.383337
vt 0.652911 0.314872
vt 0.642121 0.294685
vt 0.635476 0.272780
vt 0.633233 0.250000
vt 0.635476 0.227220
vt 0.642121 0.205315
vt 0.652911 0.185127
vt 0.667433 0.167433
vt 0.580294 0.080294
vt 0.550447 0.116663
vt 0.528269 0.158156
vt 0.703178 0.014612
vt 0.658156 0.028269
vt 0.616663 0.050447
vt 0.685127 0.152911
vt 0.705315 0.142121
vt 0.727220 0.135476
vt 0.750000 0.133233
vt 0.772780 0.135476
vt 0.794685 0.142121
vt 0.814873 0.152911
vt 0.832567 0.167433
vt 0.847089 0.185128
vt 0.857879 0.205315
vt 0.864524 0.227220
vt 0.866768 0.250000
vt 0.864524 0.272780
vt 0.857879 0.294685
vt 0.847089 0.314872
vt 0.832567 0.332567
vt 0.814873 0.347089
vt 0.794685 0.357879
vt 0.772780 0.364524
vt 0.750000 0.366767
vt 0.727220 0.364524
vt 0.705315 0.357879
vt 0.685127 0.347089
vt 0.667433 0.332567
vt 0.580294 0.419706
vt 0.616663 0.449553
vt 0.658156 0.471731
vt 0.703178 0.485388
vt 0.750000 0.490000
vt 0.796822 0.485388
vt 0.841844 0.471731
vt 0.883337 0.449553
vt 0.919706 0.419706
vt 0.949553 0.383337
vt 0.971731 0.341844
vt 0.985388 0.296822
vt 0.990000 0.250000
vt 0.985388 0.203178
vt 0.971731 0.158156
vt 0.949553 0.116663
vt 0.919706 0.080294
vt 0.883337 0.050447
vt 0.841844 0.028269
vt 0.796822 0.014612
vt 0.750000 0.010000
vt 0.203178 0.485388
vn 0.0980 0.0000 -0.9952
vn 0.2903 0.0000 -0.9569
vn 0.4714 0.0000 -0.8819
vn 0.6344 0.0000 -0.7730
vn 0.7730 0.0000 -0.6344
vn 0.8819 0.0000 -0.4714
vn 0.9569 0.0000 -0.2903
vn 0.9952 0.0000 -0.0980
vn 0.9952 0.0000 0.0980
vn 0.9569 0.0000 0.2903
vn 0.8819 0.0000 0.4714
vn 0.7730 0.0000 0.6344
vn 0.6344 0.0000 0.7730
vn 0.4714 0.0000 0.8819
vn 0.2903 0.0000 0.9569
vn 0.0980 0.0000 0.9952
vn -0.0980 0.0000 0.9952
vn -0.2903 0.0000 0.9569
vn -0.4714 0.0000 0.8819
vn -0.6344 0.0000 0.7730
vn -0.7730 0.0000 0.6344
vn -0.8819 0.0000 0.4714
vn -0.9569 0.0000 0.2903
vn -0.9952 0.0000 0.0980
vn -0.9952 0.0000 -0.0980
vn -0.9569 0.0000 -0.2903
vn -0.8819 0.0000 -0.4714
vn -0.7730 0.0000 -0.6344
vn -0.6344 0.0000 -0.7730
vn -0.4714 0.0000 -0.8819
vn 0.0000 -1.0000 -0.0000
vn -0.2903 0.0000 -0.9569
vn -0.0980 0.0000 -0.9952
vn 0.0942 0.2746 -0.9569
vn 0.2791 0.2746 -0.9201
vn 0.4533 0.2746 -0.8480
vn 0.6100 0.2746 -0.7433
vn 0.7433 0.2746 -0.6100
vn 0.8480 0.2746 -0.4533
vn 0.9201 0.2746 -0.2791
vn 0.9569 0.2746 -0.0942
vn 0.9569 0.2746 0.0942
vn 0.9201 0.2746 0.2791
vn 0.8480 0.2746 0.4533
vn 0.7433 0.2746 0.6100
vn 0.6100 0.2746 0.7433
vn 0.4533 0.2746 0.8480
vn 0.2791 0.2746 0.9201
vn 0.0942 0.2746 0.9569
vn -0.0942 0.2746 0.9569
vn -0.2791 0.2746 0.9201
vn -0.4533 0.2746 0.8480
vn -0.6100 0.2746 0.7433
vn -0.7433 0.2746 0.6100
vn -0.8480 0.2746 0.4533
vn -0.9202 0.2746 0.2791
vn -0.9569 0.2746 0.0942
vn -0.9569 0.2746 -0.0942
vn -0.9201 0.2746 -0.2791
vn -0.8480 0.2746 -0.4533
vn -0.7433 0.2746 -0.6100
vn -0.6100 0.2746 -0.7433
vn -0.4533 0.2746 -0.8480
vn -0.2791 0.2746 -0.9201
vn -0.0942 0.2746 -0.9569
usemtl None
s off
f 66/1/1 68/2/1 2/3/1 1/4/1
f 68/2/2 70/5/2 3/6/2 2/3/2
f 70/5/3 73/7/3 4/8/3 3/6/3
f 73/7/4 74/9/4 5/10/4 4/8/4
f 74/9/5 77/11/5 6/12/5 5/10/5
f 77/11/6 79/13/6 7/14/6 6/12/6
f 79/13/7 81/15/7 8/16/7 7/14/7
f 81/15/8 83/17/8 9/18/8 8/16/8
f 83/17/9 85/19/9 10/20/9 9/18/9
f 85/19/10 87/21/10 11/22/10 10/20/10
f 87/21/11 89/23/11 12/24/11 11/22/11
f 89/23/12 91/25/12 13/26/12 12/24/12
f 91/25/13 93/27/13 14/28/13 13/26/13
f 93/27/14 95/29/14 15/30/14 14/28/14
f 95/29/15 96/31/15 16/32/15 15/30/15
f 96/31/16 67/33/16 17/34/16 16/32/16
f 67/33/17 69/35/17 18/36/17 17/34/17
f 69/35/18 71/37/18 19/38/18 18/36/18
f 71/37/19 72/39/19 20/40/19 19/38/19
f 72/39/20 75/41/20 21/42/20 20/40/20
f 75/41/21 76/43/21 22/44/21 21/42/21
f 76/43/22 78/45/22 23/46/22 22/44/22
f 78/45/23 80/47/23 24/48/23 23/46/23
f 80/47/24 82/49/24 25/50/24 24/48/24
f 82/49/25 84/51/25 26/52/25 25/50/25
f 84/51/26 86/53/26 27/54/26 26/52/26
f 86/53/27 88/55/27 28/56/27 27/54/27
f 88/55/28 90/57/28 29/58/28 28/56/28
f 90/57/29 92/59/29 30/60/29 29/58/29
f 92/59/30 94/61/30 31/62/30 30/60/30
f 28/63/31 29/64/31 30/65/31 31/66/31 32/67/31 1/68/31 2/69/31 3/70/31 4/71/31 5/72/31 6/73/31 7/74/31 8/75/31 9/76/31 10/77/31 11/78/31 12/79/31 13/80/31 14/81/31 15/82/31 16/83/31 17/84/31 18/85/31 19/86/31 20/87/31 21/88/31 22/89/31 23/90/31 24/91/31 25/92/31 26/93/31 27/94/31
f 94/61/32 97/95/32 32/96/32 31/62/32
f 97/95/33 66/97/33 1/98/33 32/96/33
f 33/99/34 65/100/34 34/101/34
f 34/101/35 65/100/35 35/102/35
f 35/102/36 65/100/36 36/103/36
f 36/103/37 65/100/37 37/104/37
f 37/104/38 65/100/38 38/105/38
f 38/105/39 65/100/39 39/106/39
f 39/106/40 65/100/40 40/107/40
f 40/107/41 65/100/41 41/108/41
f 65/100/42 42/109/42 41/108/42
f 65/100/43 43/110/43 42/109/43
f 65/100/44 44/111/44 43/110/44
f 65/100/45 45/112/45 44/111/45
f 65/100/46 46/113/46 45/112/46
f 65/100/47 47/114/47 46/113/47
f 65/100/48 48/115/48 47/114/48
f 65/100/49 49/116/49 48/115/49
f 50/117/50 49/116/50 65/100/50
f 51/118/51 50/117/51 65/100/51
f 52/119/52 51/118/52 65/100/52
f 53/120/53 52/119/53 65/100/53
f 54/121/54 53/120/54 65/100/54
f 55/122/55 54/121/55 65/100/55
f 56/123/56 55/122/56 65/100/56
f 57/124/57 56/123/57 65/100/57
f 58/125/58 57/124/58 65/100/58
f 59/126/59 58/125/59 65/100/59
f 60/127/60 59/126/60 65/100/60
f 61/128/61 60/127/61 65/100/61
f 62/129/62 61/128/62 65/100/62
f 63/130/63 62/129/63 65/100/63
f 56/131/31 57/132/31 58/133/31 59/134/31 60/135/31 88/136/31 86/137/31 84/138/31 82/139/31 80/140/31 78/141/31 76/142/31 75/143/31 53/144/31 54/145/31 55/146/31
f 50/147/31 51/148/31 52/149/31 53/144/31 75/143/31 72/150/31 71/151/31 69/152/31 67/153/31 96/154/31 95/155/31 93/156/31 91/157/31 89/158/31 87/159/31 85/160/31 83/161/31 81/162/31 79/163/31 77/164/31 74/165/31 73/166/31 70/167/31 68/168/31 66/169/31 97/170/31 94/171/31 92/172/31 90/173/31 88/136/31 60/135/31 61/174/31 62/175/31 63/176/31 64/177/31 33/178/31 34/179/31 35/180/31 36/181/31 37/182/31 38/183/31 39/184/31 40/185/31 41/186/31 42/187/31 43/188/31 44/189/31 45/190/31 46/191/31 47/192/31 48/193/31 49/194/31
f 64/195/64 63/130/64 65/100/64
f 64/195/65 65/100/65 33/99/65
